<svg width="28" height="27" viewBox="0 0 28 27" fill="none" xmlns="http://www.w3.org/2000/svg">
<path d="M0.941406 4.6875C0.941406 3.4443 1.43345 2.25201 2.30928 1.37294C3.18512 0.49386 4.37301 0 5.61163 0H18.6883C19.9269 0 21.1148 0.49386 21.9906 1.37294C22.8665 2.25201 23.3585 3.4443 23.3585 4.6875V8.625C22.7613 8.31877 22.1356 8.07197 21.4904 7.88812V4.6875C21.4904 3.94158 21.1952 3.22621 20.6697 2.69876C20.1442 2.17132 19.4314 1.875 18.6883 1.875H5.61163C4.86846 1.875 4.15573 2.17132 3.63022 2.69876C3.10472 3.22621 2.8095 3.94158 2.8095 4.6875V17.8125C2.8095 18.5584 3.10472 19.2738 3.63022 19.8012C4.15573 20.3287 4.86846 20.625 5.61163 20.625H8.80046C8.98603 21.28 9.23075 21.905 9.53463 22.5H5.61163C4.37301 22.5 3.18512 22.0061 2.30928 21.1271C1.43345 20.248 0.941406 19.0557 0.941406 17.8125V4.6875ZM19.6223 6.09375V7.54125C19.0009 7.48533 18.3757 7.48533 17.7542 7.54125V6.09375C17.7542 5.96943 17.705 5.8502 17.6174 5.76229C17.5299 5.67439 17.4111 5.625 17.2872 5.625H14.9521C14.7044 5.625 14.4668 5.52623 14.2916 5.35041C14.1165 5.1746 14.018 4.93614 14.018 4.6875C14.018 4.43886 14.1165 4.2004 14.2916 4.02459C14.4668 3.84877 14.7044 3.75 14.9521 3.75H17.2872C18.5762 3.75 19.6223 4.8 19.6223 6.09375ZM7.0127 16.875H8.45487C8.39916 17.4987 8.39916 18.1263 8.45487 18.75H7.0127C5.72372 18.75 4.67759 17.7 4.67759 16.4062V14.0625C4.67759 13.8139 4.776 13.5754 4.95116 13.3996C5.12633 13.2238 5.36391 13.125 5.61163 13.125C5.85936 13.125 6.09694 13.2238 6.2721 13.3996C6.44727 13.5754 6.54568 13.8139 6.54568 14.0625V16.4062C6.54568 16.665 6.75491 16.875 7.0127 16.875ZM7.0127 5.625C6.88884 5.625 6.77005 5.67439 6.68247 5.76229C6.59488 5.8502 6.54568 5.96943 6.54568 6.09375V8.4375C6.54568 8.68614 6.44727 8.9246 6.2721 9.10041C6.09694 9.27623 5.85936 9.375 5.61163 9.375C5.36391 9.375 5.12633 9.27623 4.95116 9.10041C4.776 8.9246 4.67759 8.68614 4.67759 8.4375V6.09375C4.67759 4.8 5.72372 3.75 7.0127 3.75H9.34782C9.59554 3.75 9.83312 3.84877 10.0083 4.02459C10.1835 4.2004 10.2819 4.43886 10.2819 4.6875C10.2819 4.93614 10.1835 5.1746 10.0083 5.35041C9.83312 5.52623 9.59554 5.625 9.34782 5.625H7.0127ZM18.6883 11.25C20.4223 11.25 22.0854 11.9414 23.3116 13.1721C24.5377 14.4028 25.2266 16.072 25.2266 17.8125C25.2266 19.553 24.5377 21.2222 23.3116 22.4529C22.0854 23.6836 20.4223 24.375 18.6883 24.375C16.9542 24.375 15.2912 23.6836 14.065 22.4529C12.8388 21.2222 12.15 19.553 12.15 17.8125C12.15 16.072 12.8388 14.4028 14.065 13.1721C15.2912 11.9414 16.9542 11.25 18.6883 11.25ZM18.6883 26.25C20.9178 26.25 23.056 25.3611 24.6325 23.7787C26.209 22.1964 27.0947 20.0503 27.0947 17.8125C27.0947 15.5747 26.209 13.4286 24.6325 11.8463C23.056 10.2639 20.9178 9.375 18.6883 9.375C16.4588 9.375 14.3205 10.2639 12.744 11.8463C11.1675 13.4286 10.2819 15.5747 10.2819 17.8125C10.2819 20.0503 11.1675 22.1964 12.744 23.7787C14.3205 25.3611 16.4588 26.25 18.6883 26.25ZM23.3585 17.8125C23.3585 19.0557 22.8665 20.248 21.9906 21.1271C21.1148 22.0061 19.9269 22.5 18.6883 22.5C17.4496 22.5 16.2618 22.0061 15.3859 21.1271C14.5101 20.248 14.018 19.0557 14.018 17.8125C14.018 16.5693 14.5101 15.377 15.3859 14.4979C16.2618 13.6189 17.4496 13.125 18.6883 13.125C19.9269 13.125 21.1148 13.6189 21.9906 14.4979C22.8665 15.377 23.3585 16.5693 23.3585 17.8125Z" fill="white"/>
</svg>
