<svg width="30" height="30" viewBox="0 0 30 30" fill="none" xmlns="http://www.w3.org/2000/svg">
<path d="M10.8517 15.9H13.0267V20.9625C13.0267 21.7125 13.9517 22.0625 14.4517 21.5L19.7767 15.45C20.2392 14.925 19.8642 14.1 19.1642 14.1H16.9892V9.0375C16.9892 8.2875 16.0642 7.9375 15.5642 8.5L10.2392 14.55C9.77666 15.075 10.1517 15.9 10.8517 15.9Z" stroke="#0A52A8" stroke-width="1.87431" stroke-miterlimit="10" stroke-linecap="round" stroke-linejoin="round"/>
<path d="M14.9648 27.5C21.8684 27.5 27.4648 21.9036 27.4648 15C27.4648 8.09644 21.8684 2.5 14.9648 2.5C8.06129 2.5 2.46484 8.09644 2.46484 15C2.46484 21.9036 8.06129 27.5 14.9648 27.5Z" stroke="#0A52A8" stroke-width="1.87431" stroke-miterlimit="10" stroke-linecap="round" stroke-linejoin="round"/>
</svg>
