<svg width="20" height="20" viewBox="0 0 20 20" fill="none" xmlns="http://www.w3.org/2000/svg">
<g clip-path="url(#clip0_484_1763)">
<path d="M13.7483 0C12.6821 0.0737496 11.4359 0.756246 10.7096 1.64499C10.0471 2.45124 9.50212 3.64873 9.71462 4.81247C10.8796 4.84872 12.0833 4.14998 12.7808 3.24623C13.4333 2.40499 13.9271 1.21499 13.7483 0Z" fill="black"/>
<path d="M17.9634 6.71038C16.9397 5.42664 15.5009 4.68164 14.1422 4.68164C12.3485 4.68164 11.5897 5.54039 10.3435 5.54039C9.05847 5.54039 8.08223 4.68414 6.53099 4.68414C5.00724 4.68414 3.38475 5.61539 2.35601 7.20788C0.909769 9.45036 1.15727 13.6666 3.501 17.2578C4.33975 18.5428 5.45974 19.9878 6.92473 20.0003C8.22848 20.0128 8.59597 19.1641 10.3622 19.1553C12.1285 19.1453 12.4635 20.0116 13.7647 19.9978C15.2309 19.9866 16.4122 18.3853 17.2509 17.1003C17.8522 16.1791 18.0759 15.7153 18.5422 14.6753C15.1509 13.3841 14.6072 8.56162 17.9634 6.71038Z" fill="black"/>
</g>
<defs>
<clipPath id="clip0_484_1763">
<rect width="20" height="20" fill="white"/>
</clipPath>
</defs>
</svg>
