<svg width="1691" height="1001" viewBox="0 0 1691 1001" fill="none" xmlns="http://www.w3.org/2000/svg">
<g clip-path="url(#clip0_506_7026)">
<path d="M3807.14 2296.58C3465.41 2732.79 1726.59 1951.93 782.065 1757.47C-162.461 1563.01 -291.122 1635.64 -726.584 1363.18C-1162.05 1090.72 -1032.43 1018.69 -1308.16 449.67C-1583.89 -119.353 -2518.31 -1115.43 -2050.09 -1368.14C-1581.86 -1620.84 7.56055 -978.266 939.321 -763.305C1871.08 -548.345 1824.9 -973.803 2422.36 -336.326" stroke="#0A52A8" stroke-opacity="0.02" stroke-width="9"/>
<path d="M3697.45 2230.06C3368.38 2650.11 1693.96 1898.17 784.415 1710.91C-125.129 1523.66 -249.024 1593.59 -668.358 1331.23C-1087.69 1068.86 -962.872 999.502 -1228.39 451.553C-1493.91 -96.3958 -2393.72 -1055.58 -1942.84 -1298.93C-1491.96 -1542.27 38.5959 -923.497 935.846 -716.497C1833.1 -509.498 1788.63 -919.199 2363.96 -305.332" stroke="#0A52A8" stroke-opacity="0.02" stroke-width="9"/>
<path d="M3587.76 2163.54C3271.35 2567.44 1661.32 1844.42 786.763 1664.36C-87.7983 1484.31 -206.928 1551.55 -610.134 1299.28C-1013.34 1047 -893.321 980.31 -1148.63 453.436C-1403.93 -73.4383 -2269.14 -995.735 -1835.6 -1229.72C-1402.06 -1463.7 69.6296 -868.727 932.37 -669.69C1795.11 -470.652 1752.35 -864.595 2305.56 -274.339" stroke="#0A52A8" stroke-opacity="0.02" stroke-width="9"/>
<path d="M3478.07 2097.02C3174.31 2484.76 1628.69 1790.66 789.113 1617.81C-50.4657 1444.95 -164.831 1509.51 -551.908 1267.33C-938.986 1025.14 -823.767 961.117 -1068.86 455.318C-1313.95 -50.4807 -2144.55 -935.885 -1728.36 -1160.51C-1312.16 -1385.14 100.665 -813.958 928.896 -622.882C1757.13 -431.806 1716.08 -809.991 2247.15 -243.345" stroke="#0A52A8" stroke-opacity="0.02" stroke-width="9"/>
<path d="M3368.38 2030.5C3077.28 2402.08 1596.06 1736.9 791.463 1571.25C-13.1334 1405.6 -122.733 1467.47 -493.682 1235.37C-864.632 1003.28 -754.214 941.925 -989.095 457.201C-1223.98 -27.523 -2019.97 -876.036 -1621.11 -1091.3C-1222.25 -1306.57 131.7 -759.189 925.422 -576.074C1719.14 -392.96 1679.8 -755.387 2188.75 -212.352" stroke="#0A52A8" stroke-opacity="0.02" stroke-width="9"/>
<path d="M3258.69 1963.98C2980.25 2319.4 1563.43 1683.15 793.813 1524.7C24.1993 1366.25 -80.6352 1425.43 -435.457 1203.42C-790.278 981.42 -684.661 922.733 -909.329 459.084C-1134 -4.56552 -1895.38 -816.186 -1513.87 -1022.09C-1132.35 -1228 162.736 -704.42 921.948 -529.267C1681.16 -354.114 1643.53 -700.784 2130.35 -181.358" stroke="#0A52A8" stroke-opacity="0.02" stroke-width="9"/>
<path d="M3149 1897.45C2883.21 2236.73 1530.79 1629.39 796.163 1478.14C61.5315 1326.9 -38.5375 1383.38 -377.231 1171.47C-715.924 959.56 -615.107 903.54 -829.564 460.966C-1044.02 18.3921 -1770.8 -756.337 -1406.62 -952.884C-1042.45 -1149.43 193.771 -649.651 918.473 -482.459C1643.18 -315.268 1607.26 -646.18 2071.95 -150.364" stroke="#0A52A8" stroke-opacity="0.02" stroke-width="9"/>
<path d="M3039.31 1830.93C2786.18 2154.05 1498.16 1575.63 798.511 1431.59C98.8622 1287.54 3.55814 1341.34 -319.007 1139.52C-641.572 937.7 -545.556 884.348 -749.8 462.849C-954.044 41.3497 -1646.21 -696.487 -1299.38 -883.675C-952.546 -1070.86 224.804 -594.882 914.997 -435.651C1605.19 -276.421 1570.98 -591.576 2013.55 -119.371" stroke="#0A52A8" stroke-opacity="0.02" stroke-width="9"/>
<path d="M2929.62 1764.41C2689.14 2071.37 1465.53 1521.88 800.861 1385.03C136.195 1248.19 45.6558 1299.3 -260.781 1107.57C-567.217 915.84 -476.003 865.156 -670.035 464.731C-864.067 64.3073 -1521.63 -636.638 -1192.13 -814.466C-862.643 -992.294 255.84 -540.112 911.523 -388.844C1567.21 -237.575 1534.71 -536.972 1955.14 -88.3771" stroke="#0A52A8" stroke-opacity="0.02" stroke-width="9"/>
<path d="M2819.93 1697.89C2592.11 1988.69 1432.89 1468.12 803.209 1338.48C173.525 1208.84 87.7516 1257.26 -202.557 1075.62C-492.865 893.981 -406.451 845.964 -590.271 466.614C-774.091 87.265 -1397.04 -576.788 -1084.89 -745.257C-772.742 -913.726 286.873 -485.343 908.047 -342.036C1529.22 -198.729 1498.43 -482.368 1896.74 -57.3834" stroke="#0A52A8" stroke-opacity="0.02" stroke-width="9"/>
<path d="M2710.24 1631.37C2495.08 1906.02 1400.26 1414.36 805.559 1291.93C210.858 1169.49 129.849 1215.22 -144.331 1043.67C-418.511 872.121 -336.898 826.771 -510.505 468.497C-684.113 110.223 -1272.46 -516.939 -977.647 -676.048C-682.84 -835.158 317.909 -430.574 904.572 -295.229C1491.24 -159.883 1462.16 -427.764 1838.34 -26.3899" stroke="#0A52A8" stroke-opacity="0.02" stroke-width="9"/>
<path d="M2600.55 1564.85C2398.04 1823.34 1367.63 1360.61 807.909 1245.37C248.19 1130.13 171.947 1173.17 -86.105 1011.72C-344.157 850.26 -267.344 807.578 -430.74 470.379C-594.135 133.179 -1147.87 -457.09 -870.403 -606.841C-592.937 -756.591 348.944 -375.806 901.098 -248.422C1453.25 -121.038 1425.88 -373.161 1779.94 4.60283" stroke="#0A52A8" stroke-opacity="0.02" stroke-width="9"/>
<path d="M2490.86 1498.32C2301.01 1740.66 1335 1306.85 810.259 1198.82C285.523 1090.78 214.045 1131.13 -27.8791 979.765C-269.803 828.4 -197.791 788.386 -350.974 472.261C-504.157 156.137 -1023.28 -397.241 -763.158 -537.632C-503.034 -678.022 379.979 -321.037 897.624 -201.614C1415.27 -82.1915 1389.61 -318.557 1721.54 35.5965" stroke="#0A52A8" stroke-opacity="0.02" stroke-width="9"/>
<path d="M2381.17 1431.8C2203.97 1657.98 1302.36 1253.09 812.607 1152.26C322.853 1051.43 256.14 1089.09 30.3449 947.814C-195.45 806.54 -128.24 769.193 -271.21 474.144C-414.181 179.094 -898.699 -337.392 -655.916 -468.423C-413.133 -599.454 411.013 -266.267 894.147 -154.806C1377.28 -43.3454 1353.34 -263.953 1663.13 66.5901" stroke="#0A52A8" stroke-opacity="0.02" stroke-width="9"/>
<path d="M2271.48 1365.28C2106.94 1575.31 1269.73 1199.34 814.957 1105.71C360.186 1012.08 298.238 1047.05 88.5708 915.864C-121.096 784.68 -58.6862 750.001 -191.445 476.026C-324.204 202.052 -774.112 -277.542 -548.671 -399.214C-323.23 -520.886 442.048 -211.498 890.673 -107.999C1339.3 -4.4992 1317.06 -209.35 1604.73 97.5838" stroke="#0A52A8" stroke-opacity="0.02" stroke-width="9"/>
<path d="M2161.79 1298.76C2009.91 1492.63 1237.1 1145.58 817.308 1059.15C397.518 972.726 340.336 1005 146.797 883.913C-46.7422 762.82 10.8672 730.809 -111.679 477.909C-234.226 225.01 -649.526 -217.693 -441.427 -330.005C-233.327 -442.318 473.083 -156.729 887.199 -61.1911C1301.31 34.3469 1280.79 -154.746 1546.33 128.577" stroke="#0A52A8" stroke-opacity="0.02" stroke-width="9"/>
<path d="M2052.09 1232.24C1912.87 1409.95 1204.46 1091.82 819.656 1012.6C434.849 933.374 382.431 962.963 205.021 851.961C27.61 740.96 80.4187 711.616 -31.9157 479.792C-144.25 247.967 -524.942 -157.843 -334.184 -260.796C-143.426 -363.749 504.117 -101.96 883.723 -14.3834C1263.33 73.1931 1244.51 -100.142 1487.92 159.571" stroke="#0A52A8" stroke-opacity="0.02" stroke-width="9"/>
<path d="M1942.4 1165.72C1815.84 1327.27 1171.83 1038.07 822.006 966.044C472.181 894.022 424.529 920.921 263.247 820.011C101.964 719.1 149.972 692.424 47.8499 481.674C-54.2722 270.925 -400.356 -97.9937 -226.939 -191.587C-53.5231 -285.181 535.152 -47.1908 880.249 32.4243C1225.34 112.039 1208.24 -45.5379 1429.52 190.565" stroke="#0A52A8" stroke-opacity="0.02" stroke-width="9"/>
<path d="M1832.71 1099.19C1718.81 1244.6 1139.2 984.31 824.356 919.49C509.514 854.67 466.627 878.879 321.473 788.06C176.318 697.24 219.525 673.232 127.616 483.557C35.7056 293.883 -275.77 -38.1442 -119.695 -122.379C36.3798 -206.613 566.188 7.5784 876.774 79.2319C1187.36 150.885 1171.97 9.06599 1371.12 221.558" stroke="#0A52A8" stroke-opacity="0.02" stroke-width="9"/>
<path d="M1723.02 1032.67C1621.77 1161.92 1106.56 930.553 826.704 872.936C546.844 815.318 508.722 836.837 379.697 756.109C250.671 675.38 289.077 654.039 207.379 485.44C125.681 316.84 -151.185 21.7052 -12.4524 -53.1698C126.281 -128.045 597.221 62.3476 873.298 126.04C1149.38 189.732 1135.69 63.6699 1312.72 252.552" stroke="#0A52A8" stroke-opacity="0.02" stroke-width="9"/>
<path d="M1613.33 966.152C1524.74 1079.24 1073.93 876.797 829.054 826.381C584.177 775.966 550.82 794.795 437.922 724.158C325.025 653.52 358.63 634.847 287.145 487.322C215.659 339.798 -26.5993 81.5547 94.7922 16.0391C216.184 -49.4766 628.256 117.117 869.824 172.847C1111.39 228.578 1099.42 118.274 1254.32 283.546" stroke="#0A52A8" stroke-opacity="0.02" stroke-width="9"/>
<path d="M1503.64 899.63C1427.7 996.565 1041.3 823.04 831.404 779.827C621.509 736.614 592.918 752.753 496.148 692.207C399.379 631.661 428.184 615.655 366.91 489.205C305.637 362.755 97.9869 141.404 202.037 85.2479C306.087 29.0916 659.292 171.886 866.349 219.655C1073.41 267.424 1063.14 172.878 1195.91 314.539" stroke="#0A52A8" stroke-opacity="0.02" stroke-width="9"/>
<path d="M1393.95 833.109C1330.67 913.888 1008.67 769.284 833.754 733.273C658.842 697.262 635.015 710.711 554.374 660.256C473.733 609.801 497.737 596.463 446.676 491.088C395.615 385.713 222.573 201.254 309.281 154.457C395.989 107.66 690.327 226.655 862.875 266.463C1035.42 306.27 1026.87 227.482 1137.51 345.533" stroke="#0A52A8" stroke-opacity="0.02" stroke-width="9"/>
<path d="M1284.26 766.587C1233.63 831.211 976.032 715.527 836.102 686.718C696.172 657.909 677.111 668.669 612.598 628.305C548.085 587.941 567.288 577.27 526.44 492.97C485.591 408.671 347.157 261.103 416.524 223.666C485.89 186.228 721.361 281.424 859.399 313.27C997.438 345.116 990.596 282.085 1079.11 376.526" stroke="#0A52A8" stroke-opacity="0.02" stroke-width="9"/>
<path d="M1174.57 700.066C1136.6 748.533 943.399 661.771 838.452 640.164C733.504 618.557 719.209 626.627 670.824 596.354C622.439 566.081 636.842 558.078 606.205 494.853C575.569 431.628 471.743 320.953 523.768 292.874C575.793 264.796 752.396 336.193 855.925 360.078C959.454 383.962 954.322 336.689 1020.71 407.52" stroke="#0A52A8" stroke-opacity="0.02" stroke-width="9"/>
<path d="M1064.88 633.544C1039.57 665.856 910.767 608.014 840.802 593.61C770.837 579.205 761.307 584.585 729.05 564.403C696.794 544.221 706.395 538.886 685.971 496.736C665.546 454.586 596.33 380.802 631.013 362.083C665.696 343.365 783.431 390.963 852.451 406.886C921.47 422.809 918.049 391.293 962.305 438.514" stroke="#0A52A8" stroke-opacity="0.02" stroke-width="9"/>
<path d="M955.192 567.022C942.535 583.177 878.134 554.257 843.152 547.054C808.169 539.852 803.404 542.542 787.276 532.451C771.148 522.36 775.949 519.692 765.736 498.617C755.524 477.542 720.916 440.651 738.257 431.291C755.599 421.932 814.467 445.731 848.976 453.692C883.486 461.654 881.775 445.896 903.904 469.506" stroke="#0A52A8" stroke-opacity="0.02" stroke-width="9"/>
</g>
<defs>
<clipPath id="clip0_506_7026">
<rect width="1691" height="1001" fill="white"/>
</clipPath>
</defs>
</svg>
