<svg width="21" height="22" viewBox="0 0 21 22" fill="none" xmlns="http://www.w3.org/2000/svg">
<path d="M14.6266 3.00201C16.7881 3.01401 17.9588 3.11101 18.7221 3.87901C19.5956 4.75801 19.5956 6.17201 19.5956 9.00001V15C19.5956 17.829 19.5956 19.243 18.7221 20.122C17.8495 21 16.4432 21 13.6328 21H7.66989C4.8594 21 3.45316 21 2.58059 20.122C1.70703 19.242 1.70703 17.829 1.70703 15V9.00001C1.70703 6.17201 1.70703 4.75801 2.58059 3.87901C3.34384 3.11101 4.51454 3.01401 6.67608 3.00201" stroke="white" stroke-width="1.5"/>
<path d="M6.6774 13H14.6279M5.68359 9.5H15.6217M7.67121 16.5H13.6341" stroke="white" stroke-width="1.5" stroke-linecap="round"/>
<path d="M6.67578 2.5C6.67578 2.10218 6.83284 1.72064 7.1124 1.43934C7.39196 1.15804 7.77113 1 8.1665 1H13.1355C13.5309 1 13.9101 1.15804 14.1896 1.43934C14.4692 1.72064 14.6263 2.10218 14.6263 2.5V3.5C14.6263 3.89782 14.4692 4.27936 14.1896 4.56066C13.9101 4.84196 13.5309 5 13.1355 5H8.1665C7.77113 5 7.39196 4.84196 7.1124 4.56066C6.83284 4.27936 6.67578 3.89782 6.67578 3.5V2.5Z" stroke="white" stroke-width="1.5"/>
</svg>
