<svg width="54" height="53" viewBox="0 0 54 53" fill="none" xmlns="http://www.w3.org/2000/svg">
<g filter="url(#filter0_d_1480_1811)">
<g clip-path="url(#clip0_1480_1811)">
<rect x="1" width="52" height="52" rx="8.08833" fill="url(#paint0_angular_1480_1811)" fill-opacity="0.6"/>
<rect x="1" width="52" height="52" rx="8.08833" fill="#61F6FF" fill-opacity="0.6"/>
</g>
</g>
<defs>
<filter id="filter0_d_1480_1811" x="0.623708" y="0" width="52.7526" height="52.8432" filterUnits="userSpaceOnUse" color-interpolation-filters="sRGB">
<feFlood flood-opacity="0" result="BackgroundImageFix"/>
<feColorMatrix in="SourceAlpha" type="matrix" values="0 0 0 0 0 0 0 0 0 0 0 0 0 0 0 0 0 0 127 0" result="hardAlpha"/>
<feOffset dy="0.466864"/>
<feGaussianBlur stdDeviation="0.188146"/>
<feColorMatrix type="matrix" values="0 0 0 0 0 0 0 0 0 0 0 0 0 0 0 0 0 0 0.0361654 0"/>
<feBlend mode="normal" in2="BackgroundImageFix" result="effect1_dropShadow_1480_1811"/>
<feBlend mode="normal" in="SourceGraphic" in2="effect1_dropShadow_1480_1811" result="shape"/>
</filter>
<radialGradient id="paint0_angular_1480_1811" cx="0" cy="0" r="1" gradientUnits="userSpaceOnUse" gradientTransform="translate(16.265 44.5937) rotate(-59.3713) scale(45.3912)">
<stop offset="0.135417" stop-color="#D68B1B"/>
<stop offset="0.1875" stop-color="#EEC63A" stop-opacity="0.47"/>
<stop offset="1" stop-color="#FBD75B" stop-opacity="0"/>
</radialGradient>
<clipPath id="clip0_1480_1811">
<path d="M1 18.8728C1 12.1971 1 8.85923 2.31976 6.31858C3.43192 4.17759 5.17759 2.43192 7.31858 1.31976C9.85923 0 13.1971 0 19.8728 0H34.1272C40.8029 0 44.1408 0 46.6814 1.31976C48.8224 2.43192 50.5681 4.17759 51.6802 6.31858C53 8.85923 53 12.1971 53 18.8728V33.1272C53 39.8029 53 43.1408 51.6802 45.6814C50.5681 47.8224 48.8224 49.5681 46.6814 50.6802C44.1408 52 40.8029 52 34.1272 52H19.8728C13.1971 52 9.85923 52 7.31858 50.6802C5.17759 49.5681 3.43192 47.8224 2.31976 45.6814C1 43.1408 1 39.8029 1 33.1272V18.8728Z" fill="white"/>
</clipPath>
</defs>
</svg>
