<svg width="25" height="24" viewBox="0 0 25 24" fill="none" xmlns="http://www.w3.org/2000/svg">
<path d="M10.3169 16.7498L5.65234 12.1199L7.20682 10.5774L10.3169 13.6625L16.5347 7.49121L18.0903 9.03485L10.3169 16.7498Z" fill="white"/>
<path fill-rule="evenodd" clip-rule="evenodd" d="M0.113281 4.36364C0.113281 3.20633 0.576575 2.09642 1.40124 1.27808C2.22591 0.459739 3.3444 0 4.51066 0H19.9015C21.0677 0 22.1862 0.459739 23.0109 1.27808C23.8356 2.09642 24.2988 3.20633 24.2988 4.36364V19.6364C24.2988 20.7937 23.8356 21.9036 23.0109 22.7219C22.1862 23.5403 21.0677 24 19.9015 24H4.51066C3.3444 24 2.22591 23.5403 1.40124 22.7219C0.576575 21.9036 0.113281 20.7937 0.113281 19.6364V4.36364ZM4.51066 2.18182H19.9015C20.4846 2.18182 21.0438 2.41169 21.4562 2.82086C21.8685 3.23003 22.1002 3.78498 22.1002 4.36364V19.6364C22.1002 20.215 21.8685 20.77 21.4562 21.1791C21.0438 21.5883 20.4846 21.8182 19.9015 21.8182H4.51066C3.92753 21.8182 3.36828 21.5883 2.95595 21.1791C2.54362 20.77 2.31197 20.215 2.31197 19.6364V4.36364C2.31197 3.78498 2.54362 3.23003 2.95595 2.82086C3.36828 2.41169 3.92753 2.18182 4.51066 2.18182Z" fill="white"/>
</svg>
