<svg width="30" height="30" viewBox="0 0 30 30" fill="none" xmlns="http://www.w3.org/2000/svg">
<path d="M10.8497 15.9H13.0247V20.9625C13.0247 21.7125 13.9497 22.0625 14.4497 21.5L19.7747 15.45C20.2372 14.925 19.8622 14.1 19.1622 14.1H16.9872V9.03747C16.9872 8.28747 16.0622 7.93747 15.5622 8.49997L10.2372 14.55C9.77471 15.075 10.1497 15.9 10.8497 15.9Z" stroke="#0A52A8" stroke-width="1.87431" stroke-miterlimit="10" stroke-linecap="round" stroke-linejoin="round"/>
<path d="M14.9629 27.5C21.8665 27.5 27.4629 21.9036 27.4629 15C27.4629 8.09644 21.8665 2.5 14.9629 2.5C8.05933 2.5 2.46289 8.09644 2.46289 15C2.46289 21.9036 8.05933 27.5 14.9629 27.5Z" stroke="#0A52A8" stroke-width="1.87431" stroke-miterlimit="10" stroke-linecap="round" stroke-linejoin="round"/>
</svg>
