<svg width="66" height="66" viewBox="0 0 66 66" fill="none" xmlns="http://www.w3.org/2000/svg">
<circle cx="32.815" cy="33.1158" r="32.4596" fill="#B5B5B5"/>
<path d="M45.7054 34.1263C45.4848 36.6914 44.5361 39.1401 42.971 41.1843C41.4059 43.2285 39.2896 44.7833 36.8709 45.6656C34.4523 46.5479 31.832 46.7211 29.3182 46.1647C26.8045 45.6084 24.502 44.3457 22.6815 42.5252C20.861 40.7048 19.5983 38.4022 19.042 35.8885C18.4857 33.3747 18.6588 30.7544 19.5411 28.3358C20.4234 25.9171 21.9782 23.8008 24.0224 22.2357C26.0666 20.6706 28.5153 19.722 31.0804 19.5013C31.4782 19.4681 31.8729 19.5944 32.1777 19.8522C32.4824 20.1101 32.6723 20.4785 32.7054 20.8763C32.7386 21.2741 32.6123 21.6688 32.3545 21.9736C32.0966 22.2783 31.7282 22.4681 31.3304 22.5013C29.3346 22.6725 27.4292 23.4101 25.8385 24.6275C24.2477 25.8449 23.0378 27.4913 22.3511 29.373C21.6644 31.2547 21.5294 33.2935 21.9621 35.2493C22.3949 37.2051 23.3772 38.9967 24.7936 40.4131C26.2101 41.8295 28.0016 42.8119 29.9574 43.2446C31.9132 43.6773 33.952 43.5423 35.8337 42.8556C37.7154 42.1689 39.3618 40.959 40.5792 39.3682C41.7966 37.7775 42.5343 35.8721 42.7054 33.8763C42.7218 33.6793 42.7769 33.4875 42.8674 33.3118C42.958 33.1361 43.0823 32.9799 43.2331 32.8522C43.384 32.7246 43.5586 32.6279 43.7469 32.5676C43.9352 32.5074 44.1334 32.4849 44.3304 32.5013C44.5274 32.5177 44.7192 32.5728 44.8949 32.6633C45.0706 32.7539 45.2268 32.8781 45.3545 33.029C45.4821 33.1799 45.5789 33.3545 45.6391 33.5428C45.6993 33.731 45.7218 33.9293 45.7054 34.1263ZM30.7054 26.5013V33.0013C30.7054 33.3991 30.8635 33.7807 31.1448 34.062C31.4261 34.3433 31.8076 34.5013 32.2054 34.5013H38.7054C39.1032 34.5013 39.4848 34.3433 39.7661 34.062C40.0474 33.7807 40.2054 33.3991 40.2054 33.0013C40.2054 32.6035 40.0474 32.2219 39.7661 31.9406C39.4848 31.6593 39.1032 31.5013 38.7054 31.5013H33.7054V26.5013C33.7054 26.1035 33.5474 25.7219 33.2661 25.4406C32.9848 25.1593 32.6032 25.0013 32.2054 25.0013C31.8076 25.0013 31.4261 25.1593 31.1448 25.4406C30.8635 25.7219 30.7054 26.1035 30.7054 26.5013ZM42.2054 29.0013C42.601 29.0013 42.9877 28.884 43.3166 28.6642C43.6455 28.4445 43.9018 28.1321 44.0532 27.7667C44.2046 27.4012 44.2442 26.9991 44.167 26.6111C44.0898 26.2232 43.8993 25.8668 43.6196 25.5871C43.3399 25.3074 42.9836 25.1169 42.5956 25.0397C42.2076 24.9626 41.8055 25.0022 41.4401 25.1535C41.0746 25.3049 40.7622 25.5613 40.5425 25.8902C40.3227 26.2191 40.2054 26.6057 40.2054 27.0013C40.2054 27.5317 40.4161 28.0404 40.7912 28.4155C41.1663 28.7906 41.675 29.0013 42.2054 29.0013ZM38.2054 25.0013C38.601 25.0013 38.9877 24.884 39.3166 24.6642C39.6455 24.4445 39.9018 24.1321 40.0532 23.7667C40.2046 23.4012 40.2442 22.9991 40.167 22.6111C40.0898 22.2232 39.8993 21.8668 39.6196 21.5871C39.3399 21.3074 38.9836 21.1169 38.5956 21.0397C38.2076 20.9626 37.8055 21.0022 37.4401 21.1535C37.0746 21.3049 36.7622 21.5613 36.5425 21.8902C36.3227 22.2191 36.2054 22.6057 36.2054 23.0013C36.2054 23.5317 36.4161 24.0404 36.7912 24.4155C37.1663 24.7906 37.675 25.0013 38.2054 25.0013Z" fill="white"/>
</svg>
