<svg width="20" height="20" viewBox="0 0 20 20" fill="none" xmlns="http://www.w3.org/2000/svg">
<g clip-path="url(#clip0_484_1748)">
<path d="M4.43242 12.0846L3.73625 14.6835L1.19176 14.7373C0.431328 13.3269 0 11.7132 0 9.99832C0 8.34008 0.403281 6.77633 1.11812 5.39941H1.11867L3.38398 5.81473L4.37633 8.06645C4.16863 8.67195 4.05543 9.32195 4.05543 9.99832C4.05551 10.7324 4.18848 11.4357 4.43242 12.0846Z" fill="#FBBB00"/>
<path d="M19.8261 8.13184C19.941 8.73676 20.0009 9.36148 20.0009 9.99996C20.0009 10.7159 19.9256 11.4143 19.7822 12.0879C19.2954 14.3802 18.0234 16.3818 16.2613 17.7983L16.2608 17.7978L13.4075 17.6522L13.0037 15.1313C14.1729 14.4456 15.0866 13.3725 15.568 12.0879H10.2207V8.13184H15.646H19.8261Z" fill="#518EF8"/>
<path d="M16.2595 17.7965L16.2601 17.797C14.5464 19.1745 12.3694 19.9987 9.99965 19.9987C6.19141 19.9987 2.88043 17.8701 1.19141 14.7377L4.43207 12.085C5.27656 14.3388 7.45074 15.9432 9.99965 15.9432C11.0952 15.9432 12.1216 15.647 13.0024 15.13L16.2595 17.7965Z" fill="#28B446"/>
<path d="M16.382 2.30219L13.1425 4.95437C12.2309 4.38461 11.1534 4.05547 9.99906 4.05547C7.39246 4.05547 5.17762 5.73348 4.37543 8.06812L1.11773 5.40109H1.11719C2.78148 2.1923 6.13422 0 9.99906 0C12.4254 0 14.6502 0.864297 16.382 2.30219Z" fill="#F14336"/>
</g>
<defs>
<clipPath id="clip0_484_1748">
<rect width="20" height="20" fill="white"/>
</clipPath>
</defs>
</svg>
