<svg width="84" height="70" viewBox="0 0 84 70" fill="none" xmlns="http://www.w3.org/2000/svg">
<path d="M32.5893 4.55026C26.2671 1.53176 17.4303 0.0531359 5.59954 0.000640303C4.48378 -0.0145185 3.38991 0.310834 2.4638 0.933313C1.70365 1.44712 1.08139 2.13985 0.651775 2.95057C0.222158 3.76129 -0.00165949 4.66516 9.26348e-06 5.58267V55.646C9.26348e-06 59.0302 2.40781 61.5832 5.59954 61.5832C18.0358 61.5832 30.5105 62.7452 37.9823 69.8076C38.0845 69.9046 38.213 69.9695 38.3518 69.9941C38.4906 70.0188 38.6335 70.0021 38.7629 69.9462C38.8923 69.8903 39.0024 69.7975 39.0795 69.6796C39.1566 69.5616 39.1974 69.4236 39.1967 69.2826V10.2933C39.1969 9.8953 39.1117 9.50192 38.9469 9.13968C38.7821 8.77744 38.5415 8.45477 38.2413 8.19346C36.5298 6.73029 34.6286 5.50483 32.5893 4.55026ZM81.5292 0.928063C80.6026 0.307134 79.5087 -0.0164025 78.3935 0.000640303C66.5627 0.0531359 57.7259 1.52476 51.4037 4.55026C49.3645 5.50308 47.4628 6.72613 45.7499 8.18646C45.4504 8.44815 45.2102 8.77093 45.0458 9.13312C44.8813 9.4953 44.7962 9.88849 44.7963 10.2863V69.2791C44.7962 69.4146 44.8361 69.547 44.911 69.6598C44.9859 69.7727 45.0925 69.8609 45.2173 69.9134C45.3422 69.9659 45.4797 69.9804 45.6128 69.9551C45.7458 69.9297 45.8684 69.8656 45.9652 69.7708C50.457 65.3087 58.3401 61.578 78.4005 61.5798C79.8855 61.5798 81.3098 60.9898 82.3599 59.9397C83.41 58.8896 84 57.4653 84 55.9802V5.58442C84.002 4.6651 83.7777 3.7594 83.3468 2.94732C82.9159 2.13523 82.2916 1.44174 81.5292 0.928063Z" fill="#FF8C00" fill-opacity="0.5"/>
</svg>
