<svg width="30" height="30" viewBox="0 0 30 30" fill="none" xmlns="http://www.w3.org/2000/svg">
<path d="M12.5609 3.16248L5.03594 8.07498C2.62344 9.64998 2.62344 13.175 5.03594 14.75L12.5609 19.6625C13.9109 20.55 16.1359 20.55 17.4859 19.6625L24.9734 14.75C27.3734 13.175 27.3734 9.66248 24.9734 8.08748L17.4859 3.17498C16.1359 2.27498 13.9109 2.27498 12.5609 3.16248Z" stroke="#0A52A8" stroke-width="1.87431" stroke-linecap="round" stroke-linejoin="round"/>
<path d="M7.03594 16.35L7.02344 22.2125C7.02344 23.8 8.24844 25.5 9.74844 26L13.7359 27.325C14.4234 27.55 15.5609 27.55 16.2609 27.325L20.2484 26C21.7484 25.5 22.9734 23.8 22.9734 22.2125V16.4125" stroke="#0A52A8" stroke-width="1.87431" stroke-linecap="round" stroke-linejoin="round"/>
<path d="M26.748 18.75V11.25" stroke="#0A52A8" stroke-width="1.87431" stroke-linecap="round" stroke-linejoin="round"/>
</svg>
