<svg width="58" height="62" viewBox="0 0 58 62" fill="none" xmlns="http://www.w3.org/2000/svg">
<path d="M29 0C22.9765 0 17.1997 2.39282 12.9405 6.65207C8.68122 10.9113 6.2884 16.6881 6.2884 22.7116V34.1582C6.28887 34.6616 6.17224 35.1581 5.94772 35.6086L0.376892 46.747C0.104763 47.2911 -0.0237341 47.8958 0.00360559 48.5036C0.0309452 49.1114 0.213214 49.7022 0.533099 50.2197C0.852985 50.7372 1.29987 51.1644 1.8313 51.4606C2.36273 51.7569 2.96108 51.9123 3.56949 51.9122H54.4305C55.0389 51.9123 55.6373 51.7569 56.1687 51.4606C56.7001 51.1644 57.147 50.7372 57.4669 50.2197C57.7868 49.7022 57.9691 49.1114 57.9964 48.5036C58.0237 47.8958 57.8952 47.2911 57.6231 46.747L52.0555 35.6086C51.8299 35.1584 51.7121 34.6618 51.7116 34.1582V22.7116C51.7116 16.6881 49.3188 10.9113 45.0595 6.65207C40.8003 2.39282 35.0235 0 29 0ZM29 61.6458C26.9863 61.6468 25.0218 61.0233 23.3773 59.8611C21.7328 58.6989 20.4893 57.0553 19.818 55.1567H38.182C37.5107 57.0553 36.2672 58.6989 34.6227 59.8611C32.9782 61.0233 31.0137 61.6468 29 61.6458Z" fill="#5F5F5F" fill-opacity="0.5"/>
</svg>
