<svg width="24" height="24" viewBox="0 0 24 24" fill="none" xmlns="http://www.w3.org/2000/svg">
<path d="M20.4684 11.8785H3.47979C2.57374 11.8785 1.82812 11.1329 1.82812 10.2268V7.09339C1.82812 6.4516 2.27169 5.80037 2.86629 5.56442L11.3606 2.16673C11.7192 2.02515 12.2289 2.02515 12.5876 2.16673L21.0819 5.56442C21.6765 5.80037 22.1201 6.46104 22.1201 7.09339V10.2268C22.1201 11.1329 21.3744 11.8785 20.4684 11.8785ZM11.9741 3.46919C11.9363 3.46919 11.8986 3.46914 11.8797 3.47858L3.39483 6.87633C3.3382 6.90465 3.24384 7.02732 3.24384 7.09339V10.2268C3.24384 10.359 3.34766 10.4628 3.47979 10.4628H20.4684C20.6005 10.4628 20.7043 10.359 20.7043 10.2268V7.09339C20.7043 7.02732 20.6194 6.90465 20.5534 6.87633L12.0591 3.47858C12.0402 3.46914 12.0118 3.46919 11.9741 3.46919Z" fill="white"/>
<path d="M21.4122 22.2603H2.53598C2.14902 22.2603 1.82812 21.9394 1.82812 21.5524V18.721C1.82812 17.8149 2.57374 17.0693 3.47979 17.0693H20.4684C21.3744 17.0693 22.1201 17.8149 22.1201 18.721V21.5524C22.1201 21.9394 21.7992 22.2603 21.4122 22.2603ZM3.24384 20.8446H20.7043V18.721C20.7043 18.5889 20.6005 18.4851 20.4684 18.4851H3.47979C3.34766 18.4851 3.24384 18.5889 3.24384 18.721V20.8446Z" fill="white"/>
<path d="M4.42661 18.4853C4.03965 18.4853 3.71875 18.1644 3.71875 17.7774V11.1707C3.71875 10.7838 4.03965 10.4629 4.42661 10.4629C4.81357 10.4629 5.13447 10.7838 5.13447 11.1707V17.7774C5.13447 18.1644 4.81357 18.4853 4.42661 18.4853Z" fill="white"/>
<path d="M8.19614 18.4853C7.80918 18.4853 7.48828 18.1644 7.48828 17.7774V11.1707C7.48828 10.7838 7.80918 10.4629 8.19614 10.4629C8.5831 10.4629 8.904 10.7838 8.904 11.1707V17.7774C8.904 18.1644 8.5831 18.4853 8.19614 18.4853Z" fill="white"/>
<path d="M11.9735 18.4853C11.5865 18.4853 11.2656 18.1644 11.2656 17.7774V11.1707C11.2656 10.7838 11.5865 10.4629 11.9735 10.4629C12.3604 10.4629 12.6813 10.7838 12.6813 11.1707V17.7774C12.6813 18.1644 12.3604 18.4853 11.9735 18.4853Z" fill="white"/>
<path d="M15.7508 18.4853C15.3639 18.4853 15.043 18.1644 15.043 17.7774V11.1707C15.043 10.7838 15.3639 10.4629 15.7508 10.4629C16.1378 10.4629 16.4587 10.7838 16.4587 11.1707V17.7774C16.4587 18.1644 16.1378 18.4853 15.7508 18.4853Z" fill="white"/>
<path d="M19.5243 18.4853C19.1373 18.4853 18.8164 18.1644 18.8164 17.7774V11.1707C18.8164 10.7838 19.1373 10.4629 19.5243 10.4629C19.9112 10.4629 20.2321 10.7838 20.2321 11.1707V17.7774C20.2321 18.1644 19.9112 18.4853 19.5243 18.4853Z" fill="white"/>
<path d="M22.3584 22.2614H1.59458C1.20761 22.2614 0.886719 21.9405 0.886719 21.5536C0.886719 21.1666 1.20761 20.8457 1.59458 20.8457H22.3584C22.7454 20.8457 23.0663 21.1666 23.0663 21.5536C23.0663 21.9405 22.7454 22.2614 22.3584 22.2614Z" fill="white"/>
<path d="M11.9751 9.51961C10.8048 9.51961 9.85156 8.56636 9.85156 7.39603C9.85156 6.22571 10.8048 5.27246 11.9751 5.27246C13.1455 5.27246 14.0987 6.22571 14.0987 7.39603C14.0987 8.56636 13.1455 9.51961 11.9751 9.51961ZM11.9751 6.68818C11.5882 6.68818 11.2673 7.00907 11.2673 7.39603C11.2673 7.783 11.5882 8.10389 11.9751 8.10389C12.3621 8.10389 12.683 7.783 12.683 7.39603C12.683 7.00907 12.3621 6.68818 11.9751 6.68818Z" fill="white"/>
</svg>
