<svg width="23" height="24" viewBox="0 0 23 24" fill="none" xmlns="http://www.w3.org/2000/svg">
<path d="M11.5588 15.6079C9.60513 15.6079 8.01953 14.0223 8.01953 12.0686C8.01953 10.1149 9.60513 8.5293 11.5588 8.5293C13.5125 8.5293 15.0981 10.1149 15.0981 12.0686C15.0981 14.0223 13.5125 15.6079 11.5588 15.6079ZM11.5588 9.94501C10.3885 9.94501 9.43525 10.8983 9.43525 12.0686C9.43525 13.2389 10.3885 14.1922 11.5588 14.1922C12.7291 14.1922 13.6824 13.2389 13.6824 12.0686C13.6824 10.8983 12.7291 9.94501 11.5588 9.94501Z" fill="white"/>
<path d="M14.5897 21.6859C14.3915 21.6859 14.1933 21.6576 13.9951 21.6104C13.4099 21.4499 12.9191 21.0819 12.6077 20.5628L12.4944 20.374C11.9376 19.4113 11.1731 19.4113 10.6162 20.374L10.5124 20.5533C10.2009 21.0819 9.71016 21.4594 9.125 21.6104C8.5304 21.7708 7.91692 21.6859 7.39782 21.3744L5.77447 20.4401C5.19874 20.1097 4.78347 19.5718 4.60414 18.9205C4.43426 18.2693 4.5192 17.5992 4.84953 17.0235C5.12324 16.5421 5.19874 16.108 5.0383 15.8343C4.87785 15.5606 4.47201 15.4001 3.91516 15.4001C2.5372 15.4001 1.41406 14.277 1.41406 12.899V11.2379C1.41406 9.85995 2.5372 8.73682 3.91516 8.73682C4.47201 8.73682 4.87785 8.57637 5.0383 8.30266C5.19874 8.02896 5.13268 7.5948 4.84953 7.11346C4.5192 6.53774 4.43426 5.85819 4.60414 5.2164C4.77403 4.56517 5.18931 4.0272 5.77447 3.69687L7.40726 2.76249C8.47377 2.13014 9.88004 2.49823 10.5218 3.58361L10.6351 3.77237C11.1919 4.73506 11.9564 4.73506 12.5133 3.77237L12.6171 3.59305C13.2589 2.49823 14.6652 2.13014 15.7411 2.77193L17.3645 3.7063C17.9402 4.03664 18.3555 4.57461 18.5348 5.22584C18.7047 5.87707 18.6197 6.54717 18.2894 7.1229C18.0157 7.60424 17.9402 8.0384 18.1006 8.3121C18.2611 8.58581 18.6669 8.74625 19.2238 8.74625C20.6017 8.74625 21.7249 9.86939 21.7249 11.2474V12.9085C21.7249 14.2864 20.6017 15.4096 19.2238 15.4096C18.6669 15.4096 18.2611 15.57 18.1006 15.8437C17.9402 16.1174 18.0063 16.5516 18.2894 17.0329C18.6197 17.6086 18.7141 18.2882 18.5348 18.93C18.3649 19.5812 17.9496 20.1192 17.3645 20.4495L15.7317 21.3839C15.373 21.5821 14.9861 21.6859 14.5897 21.6859ZM11.56 18.1938C12.4 18.1938 13.1834 18.7223 13.7214 19.6567L13.8252 19.836C13.9384 20.0342 14.1272 20.1758 14.3537 20.2324C14.5802 20.2891 14.8067 20.2607 14.9955 20.1475L16.6283 19.2037C16.8737 19.0621 17.0624 18.8262 17.1379 18.543C17.2135 18.2599 17.1757 17.9673 17.0341 17.7219C16.4962 16.797 16.4301 15.8437 16.8454 15.117C17.2606 14.3902 18.1195 13.975 19.1955 13.975C19.7995 13.975 20.2808 13.4936 20.2808 12.8896V11.2285C20.2808 10.6339 19.7995 10.1431 19.1955 10.1431C18.1195 10.1431 17.2606 9.72782 16.8454 9.00108C16.4301 8.27435 16.4962 7.3211 17.0341 6.39616C17.1757 6.15077 17.2135 5.85819 17.1379 5.57505C17.0624 5.29191 16.8831 5.06539 16.6377 4.91438L15.0049 3.98001C14.5991 3.73462 14.0611 3.87619 13.8157 4.29147L13.7119 4.47079C13.1739 5.40516 12.3906 5.9337 11.5506 5.9337C10.7106 5.9337 9.92723 5.40516 9.38926 4.47079L9.28544 4.28203C9.04949 3.88563 8.52096 3.74406 8.11512 3.98001L6.48233 4.92382C6.23694 5.06539 6.04817 5.30134 5.97267 5.58449C5.89716 5.86763 5.93492 6.16021 6.07649 6.4056C6.61446 7.33054 6.68053 8.28379 6.26525 9.01052C5.84997 9.73725 4.99111 10.1525 3.91516 10.1525C3.31112 10.1525 2.82978 10.6339 2.82978 11.2379V12.899C2.82978 13.4936 3.31112 13.9844 3.91516 13.9844C4.99111 13.9844 5.84997 14.3997 6.26525 15.1264C6.68053 15.8531 6.61446 16.8064 6.07649 17.7313C5.93492 17.9767 5.89716 18.2693 5.97267 18.5524C6.04817 18.8356 6.2275 19.0621 6.47289 19.2131L8.10568 20.1475C8.30388 20.2702 8.53983 20.2985 8.75691 20.2419C8.98342 20.1852 9.17219 20.0342 9.29488 19.836L9.3987 19.6567C9.93667 18.7318 10.72 18.1938 11.56 18.1938Z" fill="white"/>
</svg>
