<svg width="16" height="19" viewBox="0 0 16 19" fill="none" xmlns="http://www.w3.org/2000/svg">
<path d="M0.800781 4.20156C0.800781 3.24678 1.18007 2.33111 1.8552 1.65598C2.53033 0.980847 3.446 0.601563 4.40078 0.601562H11.6008C12.5556 0.601563 13.4712 0.980847 14.1464 1.65598C14.8215 2.33111 15.2008 3.24678 15.2008 4.20156V11.4016C15.2008 12.3563 14.8215 13.272 14.1464 13.9471C13.4712 14.6223 12.5556 15.0016 11.6008 15.0016H4.40078C3.446 15.0016 2.53033 14.6223 1.8552 13.9471C1.18007 13.272 0.800781 12.3563 0.800781 11.4016V4.20156ZM4.40078 1.80156C3.76426 1.80156 3.15381 2.05442 2.70372 2.50451C2.25364 2.95459 2.00078 3.56504 2.00078 4.20156V11.4016C2.00078 12.0381 2.25364 12.6485 2.70372 13.0986C3.15381 13.5487 3.76426 13.8016 4.40078 13.8016H11.6008C12.2373 13.8016 12.8478 13.5487 13.2978 13.0986C13.7479 12.6485 14.0008 12.0381 14.0008 11.4016V4.20156C14.0008 3.56504 13.7479 2.95459 13.2978 2.50451C12.8478 2.05442 12.2373 1.80156 11.6008 1.80156H4.40078ZM0.800781 18.0016C0.800781 17.8424 0.863995 17.6898 0.976517 17.5773C1.08904 17.4648 1.24165 17.4016 1.40078 17.4016H14.6008C14.7599 17.4016 14.9125 17.4648 15.025 17.5773C15.1376 17.6898 15.2008 17.8424 15.2008 18.0016C15.2008 18.1607 15.1376 18.3133 15.025 18.4258C14.9125 18.5383 14.7599 18.6016 14.6008 18.6016H1.40078C1.24165 18.6016 1.08904 18.5383 0.976517 18.4258C0.863995 18.3133 0.800781 18.1607 0.800781 18.0016Z" fill="#0A52A8"/>
</svg>
