<svg width="24" height="24" viewBox="0 0 24 24" fill="none" xmlns="http://www.w3.org/2000/svg">
<path d="M11.9846 16.9248C11.1824 16.9248 10.3707 16.7172 9.73835 16.3113L4.05661 12.6021C2.99954 11.9132 2.36719 10.7523 2.36719 9.48757C2.36719 8.22286 2.99954 7.06198 4.05661 6.37299L9.74779 2.67326C11.0125 1.85214 12.9851 1.85214 14.2403 2.68269L19.8938 6.39187C20.9414 7.08085 21.5737 8.24174 21.5737 9.49701C21.5737 10.7523 20.9414 11.9132 19.8938 12.6021L14.2403 16.3113C13.608 16.7266 12.7963 16.9248 11.9846 16.9248ZM11.9846 3.47549C11.4466 3.47549 10.9087 3.59819 10.5217 3.86246L4.83997 7.56219C4.1793 7.99635 3.79234 8.69477 3.79234 9.48757C3.79234 10.2804 4.16987 10.9788 4.83997 11.4129L10.5217 15.1221C11.3051 15.6318 12.683 15.6318 13.4664 15.1221L19.1198 11.4129C19.7805 10.9788 20.158 10.2804 20.158 9.48757C20.158 8.69477 19.7805 7.99635 19.1198 7.56219L13.4664 3.85302C13.07 3.60763 12.532 3.47549 11.9846 3.47549Z" fill="white"/>
<path d="M11.9716 22.3521C11.5563 22.3521 11.1316 22.2955 10.7919 22.1822L7.7811 21.1818C6.35594 20.7099 5.23281 19.1526 5.24225 17.6519L5.25168 13.2254C5.25168 12.8385 5.57258 12.5176 5.95954 12.5176C6.34651 12.5176 6.6674 12.8385 6.6674 13.2254L6.65796 17.6519C6.65796 18.5391 7.39413 19.5584 8.23413 19.8415L11.2449 20.842C11.6224 20.9647 12.3208 20.9647 12.6984 20.842L15.7091 19.8415C16.5491 19.5584 17.2853 18.5391 17.2853 17.6613V13.2821C17.2853 12.8951 17.6062 12.5742 17.9931 12.5742C18.3801 12.5742 18.701 12.8951 18.701 13.2821V17.6613C18.701 19.162 17.5873 20.7099 16.1621 21.1912L13.1514 22.1916C12.8116 22.2955 12.3869 22.3521 11.9716 22.3521Z" fill="white"/>
<path d="M20.8446 15.7456C20.4576 15.7456 20.1367 15.4247 20.1367 15.0377V9.37485C20.1367 8.98789 20.4576 8.66699 20.8446 8.66699C21.2315 8.66699 21.5524 8.98789 21.5524 9.37485V15.0377C21.5524 15.4247 21.2315 15.7456 20.8446 15.7456Z" fill="white"/>
</svg>
