<svg width="30" height="30" viewBox="0 0 30 30" fill="none" xmlns="http://www.w3.org/2000/svg">
<path d="M5.32422 13.775V19.9875C5.32422 22.2625 5.32422 22.2625 7.47422 23.7125L13.3867 27.125C14.2742 27.6375 15.7242 27.6375 16.6117 27.125L22.5242 23.7125C24.6742 22.2625 24.6742 22.2625 24.6742 19.9875V13.775C24.6742 11.5 24.6742 11.5 22.5242 10.05L16.6117 6.63749C15.7242 6.12499 14.2742 6.12499 13.3867 6.63749L7.47422 10.05C5.32422 11.5 5.32422 11.5 5.32422 13.775Z" stroke="#0A52A8" stroke-width="1.87431" stroke-linecap="round" stroke-linejoin="round"/>
<path d="M21.877 9.5375V6.25C21.877 3.75 20.627 2.5 18.127 2.5H11.877C9.37695 2.5 8.12695 3.75 8.12695 6.25V9.45" stroke="#0A52A8" stroke-width="1.87431" stroke-linecap="round" stroke-linejoin="round"/>
<path d="M15.7858 13.7375L16.4983 14.85C16.6108 15.025 16.8608 15.2 17.0483 15.25L18.3233 15.575C19.1108 15.775 19.3233 16.45 18.8108 17.075L17.9733 18.0875C17.8483 18.25 17.7483 18.5375 17.7608 18.7375L17.8358 20.05C17.8858 20.8625 17.3108 21.275 16.5608 20.975L15.3358 20.4875C15.1483 20.4125 14.8358 20.4125 14.6483 20.4875L13.4233 20.975C12.6733 21.275 12.0983 20.85 12.1483 20.05L12.2233 18.7375C12.2358 18.5375 12.1358 18.2375 12.0108 18.0875L11.1733 17.075C10.6608 16.45 10.8733 15.775 11.6608 15.575L12.9358 15.25C13.1358 15.2 13.3858 15.0125 13.4858 14.85L14.1983 13.7375C14.6483 13.0625 15.3483 13.0625 15.7858 13.7375Z" stroke="#0A52A8" stroke-width="1.87431" stroke-linecap="round" stroke-linejoin="round"/>
</svg>
