<svg width="24" height="24" viewBox="0 0 24 24" fill="none" xmlns="http://www.w3.org/2000/svg">
<path d="M2.53516 12.9432V14.9912C2.53516 19.7103 4.42278 21.5979 9.14183 21.5979H14.8047C19.5237 21.5979 21.4114 19.7103 21.4114 14.9912V9.32836C21.4114 4.6093 19.5237 2.72168 14.8047 2.72168H9.14183C4.42278 2.72168 2.53516 4.6093 2.53516 9.32836" stroke="white" stroke-width="1.41572" stroke-linecap="round" stroke-linejoin="round"/>
<path d="M10.1903 11.3584H7.68921C7.09461 11.3584 6.61328 11.8397 6.61328 12.4343V17.2666H10.1903V11.3584V11.3584Z" stroke="white" stroke-width="1.41572" stroke-miterlimit="10" stroke-linecap="round" stroke-linejoin="round"/>
<path d="M12.6902 7.06445H11.2556C10.661 7.06445 10.1797 7.54581 10.1797 8.14041V17.2577H13.7567V8.14041C13.7567 7.54581 13.2848 7.06445 12.6902 7.06445Z" stroke="white" stroke-width="1.41572" stroke-miterlimit="10" stroke-linecap="round" stroke-linejoin="round"/>
<path d="M16.2706 12.9639H13.7695V17.2583H17.3466V14.0398C17.3371 13.4452 16.8558 12.9639 16.2706 12.9639Z" stroke="white" stroke-width="1.41572" stroke-miterlimit="10" stroke-linecap="round" stroke-linejoin="round"/>
</svg>
