<svg width="22" height="23" viewBox="0 0 22 23" fill="none" xmlns="http://www.w3.org/2000/svg">
<path fill-rule="evenodd" clip-rule="evenodd" d="M10.4629 1.89089C10.5065 2.08302 10.5118 2.28186 10.4786 2.47605C10.4454 2.67024 10.3742 2.85599 10.2692 3.02267C10.1642 3.18936 10.0273 3.33373 9.86649 3.44752C9.70567 3.56132 9.524 3.64232 9.33186 3.68589C9.14719 3.72789 8.96519 3.77656 8.78586 3.83189C8.59761 3.89007 8.39974 3.9106 8.20356 3.8923C8.00738 3.87401 7.81672 3.81725 7.64247 3.72528C7.46822 3.6333 7.31379 3.50791 7.18801 3.35625C7.06222 3.20459 6.96754 3.02964 6.90936 2.84139C6.85118 2.65314 6.83066 2.45528 6.84895 2.25909C6.86724 2.06291 6.924 1.87225 7.01597 1.698C7.10795 1.52375 7.23335 1.36933 7.385 1.24354C7.53666 1.11775 7.71161 1.02307 7.89986 0.964893C8.15186 0.886893 8.40753 0.818559 8.66686 0.759893C8.85898 0.716267 9.05782 0.710917 9.25202 0.744148C9.44621 0.777379 9.63195 0.84854 9.79864 0.953567C9.96533 1.05859 10.1097 1.19543 10.2235 1.35626C10.3373 1.51709 10.4183 1.69876 10.4619 1.89089M11.5359 1.89089C11.6241 1.50304 11.8628 1.16611 12.1994 0.954199C12.536 0.742291 12.943 0.672758 13.3309 0.760893C18.0079 1.81989 21.4999 5.99989 21.4999 10.9999C21.4999 16.7989 16.7989 21.4999 10.9999 21.4999C6.00086 21.4999 1.82086 18.0079 0.759859 13.3319C0.671807 12.9439 0.741499 12.5368 0.953603 12.2002C1.16571 11.8635 1.50285 11.6249 1.89086 11.5369C2.27887 11.4488 2.68597 11.5185 3.0226 11.7306C3.35923 11.9427 3.59781 12.2799 3.68586 12.6679C3.98434 13.9744 4.62746 15.1771 5.54831 16.1508C6.46916 17.1245 7.6341 17.8337 8.92194 18.2046C10.2098 18.5755 11.5735 18.5945 12.8712 18.2597C14.1689 17.9249 15.3531 17.2485 16.3008 16.3008C17.2484 15.3532 17.9249 14.1689 18.2597 12.8712C18.5945 11.5735 18.5755 10.2098 18.2046 8.92198C17.8337 7.63413 17.1245 6.46919 16.1508 5.54834C15.1771 4.62749 13.9744 3.98437 12.6679 3.68589C12.28 3.59767 11.9431 3.359 11.7312 3.02238C11.5193 2.68577 11.4497 2.27877 11.5379 1.89089M5.97986 3.38089C6.2501 3.67257 6.39348 4.05961 6.37848 4.45695C6.36348 4.8543 6.19133 5.22942 5.89986 5.49989C5.76185 5.62847 5.62844 5.76189 5.49986 5.89989C5.36591 6.04435 5.20482 6.161 5.02579 6.2432C4.84676 6.3254 4.65329 6.37153 4.45643 6.37896C4.25957 6.38639 4.06317 6.35497 3.87845 6.2865C3.69374 6.21803 3.52431 6.11384 3.37986 5.97989C3.23541 5.84594 3.11875 5.68486 3.03655 5.50582C2.95435 5.32679 2.90822 5.13332 2.90079 4.93646C2.89336 4.7396 2.92478 4.54321 2.99325 4.35849C3.06173 4.17377 3.16591 4.00435 3.29986 3.85989C3.47986 3.66656 3.66653 3.47989 3.85986 3.29989C4.00431 3.16593 4.17373 3.06173 4.35844 2.99325C4.54316 2.92477 4.73956 2.89334 4.93643 2.90077C5.1333 2.9082 5.32677 2.95434 5.5058 3.03654C5.68483 3.11875 5.84592 3.23642 5.97986 3.38089ZM10.9999 4.49989C11.3977 4.49989 11.7792 4.65793 12.0605 4.93923C12.3418 5.22054 12.4999 5.60207 12.4999 5.99989V10.3789L15.0599 12.9389C15.2032 13.0772 15.3175 13.2427 15.3962 13.4256C15.4749 13.6086 15.5164 13.8054 15.5182 14.0046C15.5201 14.2037 15.4822 14.4013 15.4069 14.5857C15.3315 14.77 15.2202 14.9376 15.0795 15.0785C14.9387 15.2194 14.7713 15.3308 14.5869 15.4063C14.4026 15.4818 14.2051 15.5199 14.006 15.5183C13.8068 15.5166 13.61 15.4753 13.4269 15.3968C13.2439 15.3183 13.0783 15.2041 12.9399 15.0609L9.93986 12.0609C9.80041 11.9216 9.68978 11.7562 9.61428 11.5742C9.53878 11.3921 9.4999 11.197 9.49986 10.9999V5.99989C9.49986 5.60207 9.65789 5.22054 9.9392 4.93923C10.2205 4.65793 10.602 4.49989 10.9999 4.49989ZM2.83986 6.90989C3.02822 6.96787 3.2033 7.0624 3.35511 7.18808C3.50692 7.31375 3.63248 7.46811 3.7246 7.64233C3.81673 7.81655 3.87362 8.00722 3.89202 8.20344C3.91043 8.39966 3.88998 8.59758 3.83186 8.78589C3.77678 8.96612 3.72808 9.14823 3.68586 9.33189C3.59781 9.7199 3.35923 10.057 3.0226 10.2691C2.68597 10.4813 2.27887 10.5509 1.89086 10.4629C1.50285 10.3748 1.16571 10.1363 0.953603 9.79963C0.741499 9.463 0.671807 9.0559 0.759859 8.66789C0.818526 8.40789 0.886859 8.15223 0.964859 7.90089C1.02294 7.71263 1.11754 7.53764 1.24326 7.38594C1.36898 7.23424 1.52336 7.1088 1.69757 7.01677C1.87178 6.92474 2.06241 6.86794 2.25858 6.8496C2.45475 6.83126 2.65261 6.85175 2.84086 6.90989" fill="#0A52A8"/>
</svg>
