<svg width="32" height="32" viewBox="0 0 32 32" fill="none" xmlns="http://www.w3.org/2000/svg">
<rect x="5" y="5" width="22" height="22" rx="6" fill="#B4D6A4"/>
<path d="M10 17.5C11.7574 15.7426 13.5 14 14.5 13C15.5 12 16.5 15.5 17.5 15.5C18.5 15.5 21.5 11 21.5 11" stroke="#49982E" stroke-width="1.5" stroke-linecap="round"/>
<path d="M23.4514 19.309C23.152 18.3877 21.8486 18.3877 21.5493 19.309L20.9022 21.3004H18.8084C17.8397 21.3004 17.4369 22.54 18.2206 23.1094L19.9146 24.3402L19.2675 26.3316C18.9682 27.2529 20.0226 28.019 20.8064 27.4496L22.5003 26.2188L24.1943 27.4496C24.978 28.019 26.0325 27.2529 25.7332 26.3316L25.0861 24.3402L26.7801 23.1094C27.5638 22.54 27.161 21.3004 26.1923 21.3004L24.0984 21.3004L23.4514 19.309Z" fill="#49982E" stroke="white"/>
</svg>
