<svg width="21" height="22" viewBox="0 0 21 22" fill="none" xmlns="http://www.w3.org/2000/svg">
<path fill-rule="evenodd" clip-rule="evenodd" d="M12.8646 2.72495C12.952 2.50018 13 2.25569 13 2C13 0.895431 12.1046 0 11 0C9.89543 0 9 0.895431 9 2C9 2.25569 9.04798 2.50018 9.13544 2.72495L3.14684 8.36127C2.82214 8.13361 2.42667 8 2 8C0.895431 8 0 8.89543 0 10C0 11.1046 0.895431 12 2 12C3.10457 12 4 11.1046 4 10C4 9.87967 3.98937 9.76182 3.96901 9.64734L10.1635 3.81721C10.418 3.93455 10.7014 4 11 4C11.2986 4 11.582 3.93455 11.8365 3.81721L17.2948 8.95441C17.1078 9.25865 17 9.61673 17 10C17 11.1046 17.8954 12 19 12C20.1046 12 21 11.1046 21 10C21 8.89543 20.1046 8 19 8C18.8376 8 18.6798 8.01935 18.5287 8.05586L12.8646 2.72495Z" fill="#FF9053"/>
<path d="M8.45762 17.948C5.71019 14.4169 6.38724 12.5699 10.9982 9.5C16.0345 12.922 16.0048 14.7677 13.4982 18L8.45762 17.948Z" fill="#FFD5BE"/>
<path d="M8.49821 18C5.70366 14.4349 6.36467 12.5849 10.9982 9.5C16.0345 12.922 16.0048 14.7677 13.4982 18L8.45762 17.948" stroke="#FFD5BE" stroke-linecap="round"/>
<path d="M8 18H14V21C14 21.5523 13.5523 22 13 22H9C8.44772 22 8 21.5523 8 21V18Z" fill="#FF9053"/>
</svg>
