<svg width="41" height="41" viewBox="0 0 41 41" fill="none" xmlns="http://www.w3.org/2000/svg">
<path fill-rule="evenodd" clip-rule="evenodd" d="M11.1958 9.17117C12.0198 8.62055 12.9887 8.32666 13.9798 8.32666C14.6161 8.32666 15.1319 8.84249 15.1319 9.47879C15.1319 10.1151 14.6161 10.6309 13.9798 10.6309C13.4444 10.6309 12.9211 10.7897 12.476 11.0871C12.0308 11.3845 11.6839 11.8072 11.4791 12.3018C11.2742 12.7964 11.2206 13.3407 11.325 13.8657C11.4295 14.3908 11.6873 14.8731 12.0658 15.2516C12.4443 15.6302 12.9266 15.888 13.4517 15.9924C13.9768 16.0968 14.521 16.0432 15.0156 15.8384C15.5102 15.6335 15.9329 15.2866 16.2303 14.8414C16.5277 14.3963 16.6865 13.873 16.6865 13.3377C16.6865 12.7014 17.2023 12.1855 17.8386 12.1855C18.4749 12.1855 18.9908 12.7014 18.9908 13.3377C18.9908 14.3287 18.6969 15.2976 18.1463 16.1216C17.5956 16.9457 16.813 17.588 15.8974 17.9672C14.9817 18.3465 13.9742 18.4457 13.0022 18.2524C12.0301 18.059 11.1372 17.5818 10.4364 16.881C9.73564 16.1802 9.25839 15.2873 9.06504 14.3153C8.87169 13.3432 8.97092 12.3357 9.35019 11.42C9.72946 10.5044 10.3717 9.72178 11.1958 9.17117Z" fill="#8D98AA"/>
<path fill-rule="evenodd" clip-rule="evenodd" d="M39.013 15.0078C39.6402 15.0078 40.1486 15.5268 40.1486 16.167V25.8732C40.1486 30.8386 39.1881 34.6159 36.7454 37.1235C34.3011 39.6326 30.6173 40.6196 25.777 40.6196H14.4321C9.59329 40.6196 5.90959 39.633 3.46495 37.1242C1.0218 34.6168 0.0605469 30.8395 0.0605469 25.8732V21.9706C0.0605469 21.3304 0.568951 20.8115 1.1961 20.8115C1.82325 20.8115 2.33165 21.3304 2.33165 21.9706V25.8732C2.33165 30.6132 3.26299 33.6295 5.07513 35.4892C6.88578 37.3474 9.82008 38.3012 14.4321 38.3012H25.777C30.3906 38.3012 33.3248 37.347 35.135 35.4887C36.9468 33.6288 37.8775 30.6126 37.8775 25.8732V16.167C37.8775 15.5268 38.3859 15.0078 39.013 15.0078Z" fill="#8D98AA"/>
<path fill-rule="evenodd" clip-rule="evenodd" d="M3.5122 3.95623C5.98936 1.49857 9.72209 0.531738 14.6288 0.531738H22.3C22.9325 0.531738 23.4452 1.04042 23.4452 1.66791C23.4452 2.2954 22.9325 2.80408 22.3 2.80408H14.6288C9.94808 2.80408 6.96926 3.73996 5.13174 5.56302C3.29422 7.38607 2.35092 10.3414 2.35092 14.9854C2.35092 15.6128 1.8382 16.1215 1.20573 16.1215C0.573264 16.1215 0.0605469 15.6128 0.0605469 14.9854C0.0605469 10.1172 1.03504 6.41389 3.5122 3.95623Z" fill="#8D98AA"/>
<path fill-rule="evenodd" clip-rule="evenodd" d="M25.6719 7.21317C25.6719 6.59817 26.2055 6.09961 26.8638 6.09961H37.8426C38.5009 6.09961 39.0346 6.59817 39.0346 7.21317C39.0346 7.82817 38.5009 8.32672 37.8426 8.32672H26.8638C26.2055 8.32672 25.6719 7.82817 25.6719 7.21317Z" fill="#8D98AA"/>
<path fill-rule="evenodd" clip-rule="evenodd" d="M32.3538 0.531738C32.9688 0.531738 33.4673 1.0654 33.4673 1.7237V12.7025C33.4673 13.3608 32.9688 13.8944 32.3538 13.8944C31.7388 13.8944 31.2402 13.3608 31.2402 12.7025V1.7237C31.2402 1.0654 31.7388 0.531738 32.3538 0.531738Z" fill="#8D98AA"/>
<path fill-rule="evenodd" clip-rule="evenodd" d="M31.2951 22.4406L23.4141 29.2628L23.3932 29.2805C22.4351 30.0704 21.2329 30.5023 19.9922 30.5023C18.7514 30.5023 17.5492 30.0704 16.5911 29.2805C16.5808 29.2719 16.5706 29.2632 16.5606 29.2544L15.9522 28.7157C15.4428 28.3047 14.817 28.0645 14.1635 28.0296C13.506 27.9944 12.8544 28.1689 12.302 28.5278L2.95241 34.8558C2.43053 35.2091 1.72174 35.0714 1.36927 34.5484C1.0168 34.0255 1.15414 33.3151 1.67601 32.9619L11.049 26.618C12.0082 25.9911 13.1415 25.6863 14.285 25.7474C15.4285 25.8085 16.523 26.2325 17.4101 26.9581C17.4217 26.9676 17.433 26.9772 17.4442 26.9871L18.0543 27.5273C18.6019 27.9733 19.2862 28.2169 19.9922 28.2169C20.7001 28.2169 21.3862 27.9719 21.9345 27.5236L29.8155 20.7014L29.8365 20.6838C30.7946 19.8938 31.9968 19.4619 33.2375 19.4619C34.4782 19.4619 35.6804 19.8938 36.6385 20.6838L36.6595 20.7015L39.7534 23.38C40.23 23.7925 40.2826 24.5141 39.8709 24.9917C39.4592 25.4693 38.7391 25.522 38.2626 25.1094L35.1798 22.4406C34.6315 21.9923 33.9454 21.7473 33.2375 21.7473C32.5296 21.7473 31.8435 21.9923 31.2951 22.4406Z" fill="#8D98AA"/>
</svg>
